<mxfile host="app.diagrams.net" modified="2023-12-07T10:12:31.579Z" agent="Mozilla/5.0 (Macintosh; Intel Mac OS X 10_15_7) AppleWebKit/605.1.15 (KHTML, like Gecko) Version/17.2 Safari/605.1.15" etag="nTwd7xFmSgb1_jf8gI_l" version="22.1.7" type="github">
  <diagram name="Page-1" id="Ni_3Xb_9XdFL_bo4Sd_g">
    <mxGraphModel dx="1035" dy="689" grid="1" gridSize="10" guides="1" tooltips="1" connect="1" arrows="1" fold="1" page="1" pageScale="1" pageWidth="827" pageHeight="1169" math="0" shadow="0">
      <root>
        <mxCell id="0" />
        <mxCell id="1" parent="0" />
        <mxCell id="m55EmyuZSswmqhyX91h7-3" value="" style="edgeStyle=orthogonalEdgeStyle;rounded=0;orthogonalLoop=1;jettySize=auto;html=1;" edge="1" parent="1" source="m55EmyuZSswmqhyX91h7-1" target="m55EmyuZSswmqhyX91h7-4">
          <mxGeometry relative="1" as="geometry">
            <mxPoint x="424.9999999999999" y="260" as="targetPoint" />
            <Array as="points">
              <mxPoint x="425" y="220" />
              <mxPoint x="426" y="220" />
              <mxPoint x="426" y="260" />
              <mxPoint x="425" y="260" />
            </Array>
          </mxGeometry>
        </mxCell>
        <mxCell id="m55EmyuZSswmqhyX91h7-1" value="Юзер" style="shape=umlActor;verticalLabelPosition=bottom;verticalAlign=top;html=1;outlineConnect=0;" vertex="1" parent="1">
          <mxGeometry x="410" y="120" width="30" height="60" as="geometry" />
        </mxCell>
        <mxCell id="m55EmyuZSswmqhyX91h7-6" value="" style="edgeStyle=orthogonalEdgeStyle;rounded=0;orthogonalLoop=1;jettySize=auto;html=1;" edge="1" parent="1" source="m55EmyuZSswmqhyX91h7-4" target="m55EmyuZSswmqhyX91h7-5">
          <mxGeometry relative="1" as="geometry" />
        </mxCell>
        <mxCell id="m55EmyuZSswmqhyX91h7-4" value="Фронтенд&lt;br&gt;next(react)" style="whiteSpace=wrap;html=1;aspect=fixed;" vertex="1" parent="1">
          <mxGeometry x="370" y="270" width="110" height="110" as="geometry" />
        </mxCell>
        <mxCell id="m55EmyuZSswmqhyX91h7-20" style="edgeStyle=orthogonalEdgeStyle;rounded=0;orthogonalLoop=1;jettySize=auto;html=1;fillColor=#dae8fc;strokeColor=#6c8ebf;" edge="1" parent="1" source="m55EmyuZSswmqhyX91h7-5" target="m55EmyuZSswmqhyX91h7-35">
          <mxGeometry relative="1" as="geometry">
            <Array as="points">
              <mxPoint x="90" y="515" />
            </Array>
          </mxGeometry>
        </mxCell>
        <mxCell id="m55EmyuZSswmqhyX91h7-5" value="gateway&lt;br&gt;сервис" style="ellipse;shape=cloud;whiteSpace=wrap;html=1;fillColor=#dae8fc;strokeColor=#6c8ebf;" vertex="1" parent="1">
          <mxGeometry x="365" y="475" width="120" height="80" as="geometry" />
        </mxCell>
        <mxCell id="m55EmyuZSswmqhyX91h7-7" value="user" style="ellipse;whiteSpace=wrap;html=1;aspect=fixed;fillColor=#f5f5f5;fontColor=#333333;strokeColor=#666666;" vertex="1" parent="1">
          <mxGeometry x="440" y="790" width="80" height="80" as="geometry" />
        </mxCell>
        <mxCell id="m55EmyuZSswmqhyX91h7-11" value="payment" style="ellipse;whiteSpace=wrap;html=1;fillColor=#f5f5f5;fontColor=#333333;strokeColor=#666666;" vertex="1" parent="1">
          <mxGeometry x="590" y="450" width="80" height="80" as="geometry" />
        </mxCell>
        <mxCell id="m55EmyuZSswmqhyX91h7-13" value="services" style="ellipse;whiteSpace=wrap;html=1;fillColor=#f5f5f5;fontColor=#333333;strokeColor=#666666;" vertex="1" parent="1">
          <mxGeometry x="550" y="600" width="80" height="80" as="geometry" />
        </mxCell>
        <mxCell id="m55EmyuZSswmqhyX91h7-15" value="RabbitMQ" style="ellipse;whiteSpace=wrap;html=1;" vertex="1" parent="1">
          <mxGeometry x="730" y="350" width="120" height="80" as="geometry" />
        </mxCell>
        <mxCell id="m55EmyuZSswmqhyX91h7-21" style="edgeStyle=orthogonalEdgeStyle;rounded=0;orthogonalLoop=1;jettySize=auto;html=1;fillColor=#f8cecc;strokeColor=#b85450;" edge="1" parent="1" source="m55EmyuZSswmqhyX91h7-16" target="m55EmyuZSswmqhyX91h7-7">
          <mxGeometry relative="1" as="geometry" />
        </mxCell>
        <mxCell id="m55EmyuZSswmqhyX91h7-22" style="edgeStyle=orthogonalEdgeStyle;rounded=0;orthogonalLoop=1;jettySize=auto;html=1;fillColor=#f8cecc;strokeColor=#b85450;" edge="1" parent="1" source="m55EmyuZSswmqhyX91h7-16" target="m55EmyuZSswmqhyX91h7-13">
          <mxGeometry relative="1" as="geometry" />
        </mxCell>
        <mxCell id="m55EmyuZSswmqhyX91h7-23" style="edgeStyle=orthogonalEdgeStyle;rounded=0;orthogonalLoop=1;jettySize=auto;html=1;fillColor=#f8cecc;strokeColor=#b85450;" edge="1" parent="1" source="m55EmyuZSswmqhyX91h7-16" target="m55EmyuZSswmqhyX91h7-11">
          <mxGeometry relative="1" as="geometry">
            <Array as="points">
              <mxPoint x="550" y="570" />
              <mxPoint x="550" y="515" />
            </Array>
          </mxGeometry>
        </mxCell>
        <mxCell id="m55EmyuZSswmqhyX91h7-16" value="Redis" style="ellipse;whiteSpace=wrap;html=1;fillColor=#f8cecc;strokeColor=#b85450;" vertex="1" parent="1">
          <mxGeometry x="180" y="530" width="120" height="80" as="geometry" />
        </mxCell>
        <mxCell id="m55EmyuZSswmqhyX91h7-24" value="DB - master&lt;br&gt;(DB - база данных)" style="shape=cylinder3;whiteSpace=wrap;html=1;boundedLbl=1;backgroundOutline=1;size=15;fillColor=#e1d5e7;strokeColor=#9673a6;" vertex="1" parent="1">
          <mxGeometry x="717" y="600" width="110" height="80" as="geometry" />
        </mxCell>
        <mxCell id="m55EmyuZSswmqhyX91h7-29" value="" style="shape=flexArrow;endArrow=classic;startArrow=classic;html=1;rounded=0;entryX=0;entryY=0.5;entryDx=0;entryDy=0;entryPerimeter=0;" edge="1" parent="1" source="m55EmyuZSswmqhyX91h7-13" target="m55EmyuZSswmqhyX91h7-24">
          <mxGeometry width="100" height="100" relative="1" as="geometry">
            <mxPoint x="590" y="760" as="sourcePoint" />
            <mxPoint x="710" y="640" as="targetPoint" />
          </mxGeometry>
        </mxCell>
        <mxCell id="m55EmyuZSswmqhyX91h7-30" value="" style="shape=flexArrow;endArrow=classic;startArrow=classic;html=1;rounded=0;entryX=0.391;entryY=0;entryDx=0;entryDy=0;entryPerimeter=0;exitX=1;exitY=1;exitDx=0;exitDy=0;" edge="1" parent="1" source="m55EmyuZSswmqhyX91h7-11" target="m55EmyuZSswmqhyX91h7-24">
          <mxGeometry width="100" height="100" relative="1" as="geometry">
            <mxPoint x="510" y="640" as="sourcePoint" />
            <mxPoint x="610" y="540" as="targetPoint" />
          </mxGeometry>
        </mxCell>
        <mxCell id="m55EmyuZSswmqhyX91h7-31" value="" style="shape=flexArrow;endArrow=classic;startArrow=classic;html=1;rounded=0;entryX=0.009;entryY=0.895;entryDx=0;entryDy=0;entryPerimeter=0;exitX=0.925;exitY=0.198;exitDx=0;exitDy=0;exitPerimeter=0;" edge="1" parent="1" source="m55EmyuZSswmqhyX91h7-7" target="m55EmyuZSswmqhyX91h7-24">
          <mxGeometry width="100" height="100" relative="1" as="geometry">
            <mxPoint x="510" y="790" as="sourcePoint" />
            <mxPoint x="610" y="690" as="targetPoint" />
          </mxGeometry>
        </mxCell>
        <mxCell id="m55EmyuZSswmqhyX91h7-32" value="DB - slave" style="shape=cylinder3;whiteSpace=wrap;html=1;boundedLbl=1;backgroundOutline=1;size=15;fillColor=#e1d5e7;strokeColor=#9673a6;" vertex="1" parent="1">
          <mxGeometry x="900" y="600" width="110" height="80" as="geometry" />
        </mxCell>
        <mxCell id="m55EmyuZSswmqhyX91h7-33" style="edgeStyle=orthogonalEdgeStyle;rounded=0;orthogonalLoop=1;jettySize=auto;html=1;entryX=1;entryY=0.5;entryDx=0;entryDy=0;entryPerimeter=0;" edge="1" parent="1" source="m55EmyuZSswmqhyX91h7-32" target="m55EmyuZSswmqhyX91h7-24">
          <mxGeometry relative="1" as="geometry" />
        </mxCell>
        <mxCell id="m55EmyuZSswmqhyX91h7-34" style="edgeStyle=orthogonalEdgeStyle;rounded=0;orthogonalLoop=1;jettySize=auto;html=1;entryX=0;entryY=0.5;entryDx=0;entryDy=0;entryPerimeter=0;" edge="1" parent="1" source="m55EmyuZSswmqhyX91h7-24" target="m55EmyuZSswmqhyX91h7-32">
          <mxGeometry relative="1" as="geometry" />
        </mxCell>
        <mxCell id="m55EmyuZSswmqhyX91h7-35" value="Redis" style="ellipse;whiteSpace=wrap;html=1;fillColor=#ffe6cc;strokeColor=#d79b00;" vertex="1" parent="1">
          <mxGeometry x="20" y="530" width="120" height="80" as="geometry" />
        </mxCell>
        <mxCell id="m55EmyuZSswmqhyX91h7-37" style="edgeStyle=orthogonalEdgeStyle;rounded=0;orthogonalLoop=1;jettySize=auto;html=1;fillColor=#dae8fc;strokeColor=#6c8ebf;" edge="1" parent="1">
          <mxGeometry relative="1" as="geometry">
            <mxPoint x="375" y="525" as="sourcePoint" />
            <mxPoint x="270" y="542" as="targetPoint" />
            <Array as="points">
              <mxPoint x="270" y="525" />
            </Array>
          </mxGeometry>
        </mxCell>
        <mxCell id="m55EmyuZSswmqhyX91h7-38" value="" style="shape=flexArrow;endArrow=classic;startArrow=classic;html=1;rounded=0;exitX=1;exitY=0;exitDx=0;exitDy=0;entryX=0.021;entryY=0.742;entryDx=0;entryDy=0;entryPerimeter=0;startWidth=8.372093023255815;startSize=10.03953488372093;endWidth=8.372093023255815;endSize=10.03953488372093;" edge="1" parent="1">
          <mxGeometry width="100" height="100" relative="1" as="geometry">
            <mxPoint x="660.0042712474641" y="462.3557287525358" as="sourcePoint" />
            <mxPoint x="734.2400000000001" y="410" as="targetPoint" />
          </mxGeometry>
        </mxCell>
        <mxCell id="m55EmyuZSswmqhyX91h7-39" value="Сущность User" style="swimlane;whiteSpace=wrap;html=1;" vertex="1" parent="1">
          <mxGeometry x="380" y="930" width="200" height="200" as="geometry" />
        </mxCell>
        <mxCell id="m55EmyuZSswmqhyX91h7-42" value="name" style="text;html=1;align=center;verticalAlign=middle;resizable=0;points=[];autosize=1;strokeColor=none;fillColor=none;" vertex="1" parent="m55EmyuZSswmqhyX91h7-39">
          <mxGeometry x="130" y="48" width="50" height="30" as="geometry" />
        </mxCell>
        <mxCell id="m55EmyuZSswmqhyX91h7-47" value="mail&lt;br&gt;" style="text;html=1;align=center;verticalAlign=middle;resizable=0;points=[];autosize=1;strokeColor=none;fillColor=none;" vertex="1" parent="m55EmyuZSswmqhyX91h7-39">
          <mxGeometry x="130" y="85" width="50" height="30" as="geometry" />
        </mxCell>
        <mxCell id="m55EmyuZSswmqhyX91h7-48" value="phone&lt;br&gt;" style="text;html=1;align=center;verticalAlign=middle;resizable=0;points=[];autosize=1;strokeColor=none;fillColor=none;" vertex="1" parent="m55EmyuZSswmqhyX91h7-39">
          <mxGeometry x="15" y="85" width="60" height="30" as="geometry" />
        </mxCell>
        <mxCell id="m55EmyuZSswmqhyX91h7-49" value="role&lt;br&gt;" style="text;html=1;align=center;verticalAlign=middle;resizable=0;points=[];autosize=1;strokeColor=none;fillColor=none;" vertex="1" parent="m55EmyuZSswmqhyX91h7-39">
          <mxGeometry x="25" y="130" width="40" height="30" as="geometry" />
        </mxCell>
        <mxCell id="m55EmyuZSswmqhyX91h7-50" value="banned&lt;br&gt;" style="text;html=1;align=center;verticalAlign=middle;resizable=0;points=[];autosize=1;strokeColor=none;fillColor=none;" vertex="1" parent="m55EmyuZSswmqhyX91h7-39">
          <mxGeometry x="125" y="130" width="60" height="30" as="geometry" />
        </mxCell>
        <mxCell id="m55EmyuZSswmqhyX91h7-41" value="id&lt;br&gt;" style="text;html=1;align=center;verticalAlign=middle;resizable=0;points=[];autosize=1;strokeColor=none;fillColor=none;" vertex="1" parent="m55EmyuZSswmqhyX91h7-39">
          <mxGeometry x="30" y="48" width="30" height="30" as="geometry" />
        </mxCell>
        <mxCell id="m55EmyuZSswmqhyX91h7-43" value="grafana&lt;br&gt;фронтенд" style="whiteSpace=wrap;html=1;aspect=fixed;" vertex="1" parent="1">
          <mxGeometry x="750" y="210" width="80" height="80" as="geometry" />
        </mxCell>
        <mxCell id="m55EmyuZSswmqhyX91h7-45" value="" style="edgeStyle=orthogonalEdgeStyle;rounded=0;orthogonalLoop=1;jettySize=auto;html=1;" edge="1" parent="1" source="m55EmyuZSswmqhyX91h7-44" target="m55EmyuZSswmqhyX91h7-43">
          <mxGeometry relative="1" as="geometry" />
        </mxCell>
        <mxCell id="m55EmyuZSswmqhyX91h7-44" value="Admin" style="shape=umlActor;verticalLabelPosition=bottom;verticalAlign=top;html=1;outlineConnect=0;" vertex="1" parent="1">
          <mxGeometry x="770" y="60" width="30" height="60" as="geometry" />
        </mxCell>
        <mxCell id="m55EmyuZSswmqhyX91h7-46" value="&lt;h1&gt;Grafana&lt;/h1&gt;&lt;p&gt;Имеет доступ ко всем сервисам чтобы собирать логи&lt;/p&gt;" style="text;html=1;strokeColor=none;fillColor=none;spacing=5;spacingTop=-20;whiteSpace=wrap;overflow=hidden;rounded=0;" vertex="1" parent="1">
          <mxGeometry x="850" y="210" width="190" height="120" as="geometry" />
        </mxCell>
        <mxCell id="m55EmyuZSswmqhyX91h7-51" value="Сущность Service" style="swimlane;whiteSpace=wrap;html=1;" vertex="1" parent="1">
          <mxGeometry x="630" y="930" width="200" height="200" as="geometry" />
        </mxCell>
        <mxCell id="m55EmyuZSswmqhyX91h7-52" value="name" style="text;html=1;align=center;verticalAlign=middle;resizable=0;points=[];autosize=1;strokeColor=none;fillColor=none;" vertex="1" parent="m55EmyuZSswmqhyX91h7-51">
          <mxGeometry x="130" y="48" width="50" height="30" as="geometry" />
        </mxCell>
        <mxCell id="m55EmyuZSswmqhyX91h7-53" value="description" style="text;html=1;align=center;verticalAlign=middle;resizable=0;points=[];autosize=1;strokeColor=none;fillColor=none;" vertex="1" parent="m55EmyuZSswmqhyX91h7-51">
          <mxGeometry x="115" y="85" width="80" height="30" as="geometry" />
        </mxCell>
        <mxCell id="m55EmyuZSswmqhyX91h7-54" value="type" style="text;html=1;align=center;verticalAlign=middle;resizable=0;points=[];autosize=1;strokeColor=none;fillColor=none;" vertex="1" parent="m55EmyuZSswmqhyX91h7-51">
          <mxGeometry x="20" y="85" width="50" height="30" as="geometry" />
        </mxCell>
        <mxCell id="m55EmyuZSswmqhyX91h7-55" value="date" style="text;html=1;align=center;verticalAlign=middle;resizable=0;points=[];autosize=1;strokeColor=none;fillColor=none;" vertex="1" parent="m55EmyuZSswmqhyX91h7-51">
          <mxGeometry x="20" y="130" width="50" height="30" as="geometry" />
        </mxCell>
        <mxCell id="m55EmyuZSswmqhyX91h7-56" value="orderable" style="text;html=1;align=center;verticalAlign=middle;resizable=0;points=[];autosize=1;strokeColor=none;fillColor=none;" vertex="1" parent="m55EmyuZSswmqhyX91h7-51">
          <mxGeometry x="120" y="130" width="70" height="30" as="geometry" />
        </mxCell>
        <mxCell id="m55EmyuZSswmqhyX91h7-57" value="id&lt;br&gt;" style="text;html=1;align=center;verticalAlign=middle;resizable=0;points=[];autosize=1;strokeColor=none;fillColor=none;" vertex="1" parent="m55EmyuZSswmqhyX91h7-51">
          <mxGeometry x="30" y="48" width="30" height="30" as="geometry" />
        </mxCell>
        <mxCell id="m55EmyuZSswmqhyX91h7-58" value="Сущность Date" style="swimlane;whiteSpace=wrap;html=1;" vertex="1" parent="1">
          <mxGeometry x="630" y="1170" width="200" height="200" as="geometry" />
        </mxCell>
        <mxCell id="m55EmyuZSswmqhyX91h7-60" value="description" style="text;html=1;align=center;verticalAlign=middle;resizable=0;points=[];autosize=1;strokeColor=none;fillColor=none;" vertex="1" parent="m55EmyuZSswmqhyX91h7-58">
          <mxGeometry x="115" y="85" width="80" height="30" as="geometry" />
        </mxCell>
        <mxCell id="m55EmyuZSswmqhyX91h7-61" value="type" style="text;html=1;align=center;verticalAlign=middle;resizable=0;points=[];autosize=1;strokeColor=none;fillColor=none;" vertex="1" parent="m55EmyuZSswmqhyX91h7-58">
          <mxGeometry x="20" y="85" width="50" height="30" as="geometry" />
        </mxCell>
        <mxCell id="m55EmyuZSswmqhyX91h7-62" value="date" style="text;html=1;align=center;verticalAlign=middle;resizable=0;points=[];autosize=1;strokeColor=none;fillColor=none;" vertex="1" parent="m55EmyuZSswmqhyX91h7-58">
          <mxGeometry x="20" y="130" width="50" height="30" as="geometry" />
        </mxCell>
        <mxCell id="m55EmyuZSswmqhyX91h7-63" value="banned&lt;br&gt;" style="text;html=1;align=center;verticalAlign=middle;resizable=0;points=[];autosize=1;strokeColor=none;fillColor=none;" vertex="1" parent="m55EmyuZSswmqhyX91h7-58">
          <mxGeometry x="125" y="130" width="60" height="30" as="geometry" />
        </mxCell>
        <mxCell id="m55EmyuZSswmqhyX91h7-64" value="dates" style="text;html=1;align=center;verticalAlign=middle;resizable=0;points=[];autosize=1;strokeColor=none;fillColor=none;" vertex="1" parent="m55EmyuZSswmqhyX91h7-58">
          <mxGeometry x="20" y="48" width="50" height="30" as="geometry" />
        </mxCell>
      </root>
    </mxGraphModel>
  </diagram>
</mxfile>
